<mxfile host="65bd71144e">
    <diagram id="YCocXeZXnk4hwAa4k27J" name="第 1 页">
        <mxGraphModel dx="1377" dy="2035" grid="0" gridSize="10" guides="1" tooltips="1" connect="1" arrows="1" fold="1" page="1" pageScale="1" pageWidth="827" pageHeight="1169" math="0" shadow="0">
            <root>
                <mxCell id="0"/>
                <mxCell id="1" parent="0"/>
                <mxCell id="a2h8zPHeaeuPfMrSQvJm-2" value="&lt;div style=&quot;text-align: left;&quot;&gt;&lt;span style=&quot;color: rgb(0, 0, 255);&quot;&gt;struct&lt;/span&gt;&amp;nbsp;&lt;span style=&quot;color: rgb(38, 127, 153);&quot;&gt;SelfType&lt;/span&gt;&amp;nbsp;{&lt;/div&gt;&lt;div style=&quot;text-align: left;&quot;&gt;&amp;nbsp; &amp;nbsp;&amp;nbsp;&lt;span style=&quot;color: rgb(0, 16, 128);&quot;&gt;x&lt;/span&gt;:&amp;nbsp;&lt;span style=&quot;color: rgb(38, 127, 153);&quot;&gt;String&lt;/span&gt;,&lt;/div&gt;&lt;div style=&quot;text-align: left;&quot;&gt;&amp;nbsp; &amp;nbsp;&amp;nbsp;&lt;span style=&quot;color: rgb(0, 16, 128);&quot;&gt;y&lt;/span&gt;: *&lt;span style=&quot;color: rgb(0, 0, 255);&quot;&gt;const&lt;/span&gt;&amp;nbsp;String,&lt;/div&gt;&lt;div style=&quot;text-align: left;&quot;&gt;&lt;span style=&quot;color: rgb(0, 128, 0);&quot;&gt;&amp;nbsp; &amp;nbsp; _p: PhantomPinned,&lt;/span&gt;&lt;/div&gt;&lt;div style=&quot;text-align: left;&quot;&gt;}&lt;/div&gt;" style="rounded=0;whiteSpace=wrap;html=1;fontSize=7;fontFamily=Comic Sans MS;fontStyle=0;fillColor=#f5f5f5;fontColor=#333333;strokeColor=none;" parent="1" vertex="1">
                    <mxGeometry x="22" y="105" width="132" height="385" as="geometry"/>
                </mxCell>
                <mxCell id="a2h8zPHeaeuPfMrSQvJm-4" value="Unpin: Pin::new(P)&amp;nbsp;&lt;br&gt;&lt;font color=&quot;#6600cc&quot;&gt;!Unpin: Pin::new_unchecked(P)&lt;/font&gt;" style="rounded=0;whiteSpace=wrap;html=1;fontSize=7;align=left;spacingLeft=10;fontFamily=Comic Sans MS;fontStyle=0;strokeColor=none;fillColor=#eeeeee;" parent="1" vertex="1">
                    <mxGeometry x="188" y="134" width="190" height="90" as="geometry"/>
                </mxCell>
                <mxCell id="a2h8zPHeaeuPfMrSQvJm-5" value="Box::pin(self)&lt;br&gt;Box::into_pin(boxed)&lt;br&gt;Pin::from(boxed)&amp;nbsp;&amp;nbsp;" style="rounded=0;whiteSpace=wrap;html=1;fontSize=7;align=left;spacingLeft=10;fontFamily=Comic Sans MS;fontStyle=0;strokeColor=none;fillColor=#eeeeee;" parent="1" vertex="1">
                    <mxGeometry x="186" y="370" width="193" height="90" as="geometry"/>
                </mxCell>
                <mxCell id="a2h8zPHeaeuPfMrSQvJm-6" value="&lt;span style=&quot;text-align: left;&quot;&gt;Pin&amp;lt;P&amp;lt;T&amp;gt;&amp;gt;&lt;/span&gt;&lt;span style=&quot;text-align: left;&quot;&gt;代理&lt;/span&gt;" style="ellipse;shape=cloud;whiteSpace=wrap;html=1;fontSize=7;fontFamily=Comic Sans MS;fontStyle=0;strokeColor=none;fillColor=#eeeeee;" parent="1" vertex="1">
                    <mxGeometry x="171" y="257.5" width="175" height="80" as="geometry"/>
                </mxCell>
                <mxCell id="a2h8zPHeaeuPfMrSQvJm-7" value="" style="endArrow=classic;html=1;rounded=0;fontSize=7;entryX=0;entryY=0.5;entryDx=0;entryDy=0;fontFamily=Comic Sans MS;fontStyle=0;strokeColor=#999999;" parent="1" source="a2h8zPHeaeuPfMrSQvJm-2" target="a2h8zPHeaeuPfMrSQvJm-5" edge="1">
                    <mxGeometry width="50" height="50" relative="1" as="geometry">
                        <mxPoint x="352" y="440" as="sourcePoint"/>
                        <mxPoint x="402" y="390" as="targetPoint"/>
                    </mxGeometry>
                </mxCell>
                <mxCell id="a2h8zPHeaeuPfMrSQvJm-8" value="" style="endArrow=classic;html=1;rounded=0;fontSize=7;entryX=0;entryY=0.5;entryDx=0;entryDy=0;exitX=1;exitY=0.25;exitDx=0;exitDy=0;fontFamily=Comic Sans MS;fontStyle=0;strokeColor=#999999;" parent="1" source="a2h8zPHeaeuPfMrSQvJm-2" target="a2h8zPHeaeuPfMrSQvJm-4" edge="1">
                    <mxGeometry width="50" height="50" relative="1" as="geometry">
                        <mxPoint x="352" y="440" as="sourcePoint"/>
                        <mxPoint x="402" y="390" as="targetPoint"/>
                    </mxGeometry>
                </mxCell>
                <mxCell id="a2h8zPHeaeuPfMrSQvJm-9" value="" style="endArrow=classic;html=1;rounded=0;fontSize=7;exitX=0.5;exitY=1;exitDx=0;exitDy=0;entryX=0.625;entryY=0.2;entryDx=0;entryDy=0;entryPerimeter=0;fontFamily=Comic Sans MS;fontStyle=0;strokeColor=#999999;" parent="1" source="a2h8zPHeaeuPfMrSQvJm-4" target="a2h8zPHeaeuPfMrSQvJm-6" edge="1">
                    <mxGeometry width="50" height="50" relative="1" as="geometry">
                        <mxPoint x="77" y="460" as="sourcePoint"/>
                        <mxPoint x="127" y="410" as="targetPoint"/>
                    </mxGeometry>
                </mxCell>
                <mxCell id="a2h8zPHeaeuPfMrSQvJm-10" value="" style="endArrow=classic;html=1;rounded=0;fontSize=7;entryX=0.55;entryY=0.95;entryDx=0;entryDy=0;entryPerimeter=0;exitX=0.5;exitY=0;exitDx=0;exitDy=0;fontFamily=Comic Sans MS;fontStyle=0;strokeColor=#999999;" parent="1" source="a2h8zPHeaeuPfMrSQvJm-5" target="a2h8zPHeaeuPfMrSQvJm-6" edge="1">
                    <mxGeometry width="50" height="50" relative="1" as="geometry">
                        <mxPoint x="67" y="480" as="sourcePoint"/>
                        <mxPoint x="117" y="430" as="targetPoint"/>
                    </mxGeometry>
                </mxCell>
                <mxCell id="a2h8zPHeaeuPfMrSQvJm-11" value="安全操作: 实现Unpin&lt;br&gt;get_mut() -&amp;gt; &amp;amp;&lt;font color=&quot;#ff0080&quot;&gt;'a&lt;/font&gt; mut T" style="rounded=0;whiteSpace=wrap;html=1;fontSize=7;fontFamily=Comic Sans MS;fontStyle=0;strokeColor=none;fillColor=#cdeb8b;" parent="1" vertex="1">
                    <mxGeometry x="410" y="179" width="201" height="60" as="geometry"/>
                </mxCell>
                <mxCell id="a2h8zPHeaeuPfMrSQvJm-15" value="堆:&amp;nbsp;&lt;span style=&quot;&quot;&gt;Pin&amp;lt;Box&amp;lt;T&amp;gt;&amp;gt;&lt;/span&gt;" style="rounded=0;whiteSpace=wrap;html=1;fontSize=7;fontFamily=Comic Sans MS;fontStyle=0;strokeColor=none;fillColor=#E6D0DE;align=left;spacingLeft=10;" parent="1" vertex="1">
                    <mxGeometry x="186" y="460" width="193" height="30" as="geometry"/>
                </mxCell>
                <mxCell id="a2h8zPHeaeuPfMrSQvJm-16" value="&lt;font style=&quot;font-size: 11px;&quot;&gt;限制使用者只能接受Pin&amp;lt;P&amp;gt;包装&lt;br style=&quot;font-size: 11px;&quot;&gt;&lt;font style=&quot;font-size: 11px;&quot; color=&quot;#ff0000&quot;&gt;只能将Pin&lt;/font&gt;&lt;font style=&quot;font-size: 11px;&quot;&gt;作为&lt;/font&gt;操作数据的入口&lt;/font&gt;" style="rounded=0;whiteSpace=wrap;html=1;fontSize=7;fontFamily=Comic Sans MS;fontStyle=0;fillColor=#cdeb8b;strokeColor=none;" parent="1" vertex="1">
                    <mxGeometry x="410" y="104.5" width="201.5" height="60.5" as="geometry"/>
                </mxCell>
                <mxCell id="a2h8zPHeaeuPfMrSQvJm-17" value="不安全操作: 实现!Unpin&lt;br&gt;&lt;font color=&quot;#4c0099&quot;&gt;get_unchecked_mut()-&amp;gt;&amp;amp;&lt;/font&gt;&lt;font color=&quot;#ff0080&quot;&gt;'a&lt;/font&gt;&lt;font color=&quot;#4c0099&quot;&gt; mut T&lt;/font&gt;" style="rounded=0;whiteSpace=wrap;html=1;fontSize=7;fontFamily=Comic Sans MS;fontStyle=0;fillColor=#cdeb8b;strokeColor=none;" parent="1" vertex="1">
                    <mxGeometry x="409" y="250" width="202" height="60" as="geometry"/>
                </mxCell>
                <mxCell id="a2h8zPHeaeuPfMrSQvJm-19" value="" style="endArrow=classic;html=1;rounded=0;fontSize=7;exitX=0.5;exitY=1;exitDx=0;exitDy=0;fontFamily=Comic Sans MS;fontStyle=0;strokeColor=#999999;" parent="1" source="a2h8zPHeaeuPfMrSQvJm-16" target="a2h8zPHeaeuPfMrSQvJm-11" edge="1">
                    <mxGeometry width="50" height="50" relative="1" as="geometry">
                        <mxPoint x="301" y="422" as="sourcePoint"/>
                        <mxPoint x="351" y="372" as="targetPoint"/>
                    </mxGeometry>
                </mxCell>
                <mxCell id="a2h8zPHeaeuPfMrSQvJm-21" value="非unchecked系列方法" style="rounded=0;whiteSpace=wrap;html=1;fontSize=7;fontFamily=Comic Sans MS;fontStyle=0;strokeColor=none;fillColor=#cdeb8b;align=left;spacingLeft=5;" parent="1" vertex="1">
                    <mxGeometry x="626" y="179" width="159" height="60" as="geometry"/>
                </mxCell>
                <mxCell id="a2h8zPHeaeuPfMrSQvJm-26" value="&quot;能否安全获取可变引用&quot;&lt;br&gt;实施真正锁定" style="ellipse;shape=cloud;whiteSpace=wrap;html=1;fontFamily=Comic Sans MS;fontSize=7;strokeColor=none;fillColor=#cdeb8b;" parent="1" vertex="1">
                    <mxGeometry x="620" y="96" width="170" height="62" as="geometry"/>
                </mxCell>
                <mxCell id="a2h8zPHeaeuPfMrSQvJm-27" value="" style="endArrow=none;dashed=1;html=1;dashPattern=1 3;strokeWidth=2;rounded=0;fontFamily=Comic Sans MS;fontSize=7;fontColor=#FF0000;entryX=0.13;entryY=0.77;entryDx=0;entryDy=0;entryPerimeter=0;exitX=1;exitY=0.5;exitDx=0;exitDy=0;strokeColor=#999999;" parent="1" source="a2h8zPHeaeuPfMrSQvJm-11" target="a2h8zPHeaeuPfMrSQvJm-26" edge="1">
                    <mxGeometry width="50" height="50" relative="1" as="geometry">
                        <mxPoint x="432" y="420" as="sourcePoint"/>
                        <mxPoint x="482" y="370" as="targetPoint"/>
                    </mxGeometry>
                </mxCell>
                <mxCell id="a2h8zPHeaeuPfMrSQvJm-28" value="" style="endArrow=none;html=1;rounded=0;fontFamily=Comic Sans MS;fontSize=7;fontColor=#FF0000;entryX=0;entryY=0.5;entryDx=0;entryDy=0;exitX=1;exitY=0.5;exitDx=0;exitDy=0;fillColor=#f8cecc;strokeColor=#FF9933;dashed=1;" parent="1" source="a2h8zPHeaeuPfMrSQvJm-39" target="a2h8zPHeaeuPfMrSQvJm-11" edge="1">
                    <mxGeometry width="50" height="50" relative="1" as="geometry">
                        <mxPoint x="432" y="410" as="sourcePoint"/>
                        <mxPoint x="482" y="360" as="targetPoint"/>
                    </mxGeometry>
                </mxCell>
                <mxCell id="a2h8zPHeaeuPfMrSQvJm-29" value="" style="endArrow=none;html=1;rounded=0;fontFamily=Comic Sans MS;fontSize=7;fontColor=#FF0000;entryX=0;entryY=0.5;entryDx=0;entryDy=0;exitX=1;exitY=0.5;exitDx=0;exitDy=0;fillColor=#f8cecc;strokeColor=#FF9933;dashed=1;" parent="1" source="a2h8zPHeaeuPfMrSQvJm-39" target="a2h8zPHeaeuPfMrSQvJm-17" edge="1">
                    <mxGeometry width="50" height="50" relative="1" as="geometry">
                        <mxPoint x="432" y="410" as="sourcePoint"/>
                        <mxPoint x="482" y="360" as="targetPoint"/>
                    </mxGeometry>
                </mxCell>
                <mxCell id="a2h8zPHeaeuPfMrSQvJm-32" value="字段投影: 结构性、非结构性" style="rounded=0;whiteSpace=wrap;html=1;fontFamily=Comic Sans MS;fontSize=7;strokeColor=none;fillColor=#eeeeee;" parent="1" vertex="1">
                    <mxGeometry x="409" y="320" width="203" height="40" as="geometry"/>
                </mxCell>
                <mxCell id="a2h8zPHeaeuPfMrSQvJm-33" value="三方包: pin_project&lt;br&gt;" style="rounded=0;whiteSpace=wrap;html=1;strokeColor=none;fontFamily=Comic Sans MS;fontSize=7;fontColor=#4C0099;fillColor=#FFCCCC;align=left;spacingLeft=5;" parent="1" vertex="1">
                    <mxGeometry x="626" y="320" width="159" height="40" as="geometry"/>
                </mxCell>
                <mxCell id="a2h8zPHeaeuPfMrSQvJm-35" value="" style="endArrow=none;html=1;rounded=0;strokeColor=#FF9933;fontFamily=Comic Sans MS;fontSize=7;fontColor=#000000;entryX=0;entryY=0.5;entryDx=0;entryDy=0;exitX=1;exitY=0.5;exitDx=0;exitDy=0;dashed=1;" parent="1" source="a2h8zPHeaeuPfMrSQvJm-39" target="a2h8zPHeaeuPfMrSQvJm-32" edge="1">
                    <mxGeometry width="50" height="50" relative="1" as="geometry">
                        <mxPoint x="432" y="410" as="sourcePoint"/>
                        <mxPoint x="482" y="360" as="targetPoint"/>
                    </mxGeometry>
                </mxCell>
                <mxCell id="a2h8zPHeaeuPfMrSQvJm-39" value="栈:&amp;nbsp;&lt;span style=&quot;&quot;&gt;Pin&amp;lt;&amp;amp;mut T&amp;gt;&lt;/span&gt;" style="rounded=0;whiteSpace=wrap;html=1;fontSize=7;fontFamily=Comic Sans MS;fontStyle=0;strokeColor=none;fillColor=#B9E0A5;align=left;spacingLeft=9;" parent="1" vertex="1">
                    <mxGeometry x="188" y="104.5" width="190" height="30" as="geometry"/>
                </mxCell>
                <mxCell id="a2h8zPHeaeuPfMrSQvJm-42" value="&lt;font color=&quot;#cc6600&quot;&gt;辅助函数&lt;/font&gt;" style="shape=curlyBracket;whiteSpace=wrap;html=1;rounded=1;flipH=1;labelPosition=right;verticalLabelPosition=middle;align=left;verticalAlign=middle;strokeColor=#CC6600;fontFamily=Comic Sans MS;fontSize=7;fontColor=#4D9900;fillColor=#FFCCCC;" parent="1" vertex="1">
                    <mxGeometry x="786" y="320" width="7" height="524" as="geometry"/>
                </mxCell>
                <mxCell id="a2h8zPHeaeuPfMrSQvJm-43" value="&lt;div style=&quot;text-align: right;&quot;&gt;&lt;span style=&quot;font-size: 7px;&quot;&gt;锁定的核心逻辑&lt;/span&gt;&lt;/div&gt;" style="shape=curlyBracket;whiteSpace=wrap;html=1;rounded=1;flipH=1;labelPosition=right;verticalLabelPosition=middle;align=left;verticalAlign=middle;strokeColor=#4D9900;fontFamily=Comic Sans MS;fontSize=11;fontColor=#4D9900;fillColor=#FFCCCC;" parent="1" vertex="1">
                    <mxGeometry x="786" y="120" width="7" height="190" as="geometry"/>
                </mxCell>
                <mxCell id="a2h8zPHeaeuPfMrSQvJm-48" value="" style="curved=1;endArrow=classic;html=1;rounded=0;strokeColor=#CC6600;fontFamily=Comic Sans MS;fontSize=11;fontColor=#CC6600;entryX=0.75;entryY=1;entryDx=0;entryDy=0;exitX=0.75;exitY=0;exitDx=0;exitDy=0;" parent="1" source="a2h8zPHeaeuPfMrSQvJm-5" target="a2h8zPHeaeuPfMrSQvJm-4" edge="1">
                    <mxGeometry width="50" height="50" relative="1" as="geometry">
                        <mxPoint x="421" y="475" as="sourcePoint"/>
                        <mxPoint x="478" y="528" as="targetPoint"/>
                        <Array as="points">
                            <mxPoint x="359" y="346"/>
                            <mxPoint x="376" y="275"/>
                        </Array>
                    </mxGeometry>
                </mxCell>
                <mxCell id="a2h8zPHeaeuPfMrSQvJm-49" value="转化" style="edgeLabel;html=1;align=center;verticalAlign=middle;resizable=0;points=[];fontSize=11;fontFamily=Comic Sans MS;fontColor=#CC6600;" parent="a2h8zPHeaeuPfMrSQvJm-48" vertex="1" connectable="0">
                    <mxGeometry x="0.0494" y="2" relative="1" as="geometry">
                        <mxPoint as="offset"/>
                    </mxGeometry>
                </mxCell>
                <mxCell id="a2h8zPHeaeuPfMrSQvJm-102" value="as_ref&lt;br&gt;as_mut" style="edgeLabel;html=1;align=center;verticalAlign=middle;resizable=0;points=[];fontSize=11;fontFamily=Comic Sans MS;fontColor=#CC00CC;" parent="a2h8zPHeaeuPfMrSQvJm-48" vertex="1" connectable="0">
                    <mxGeometry x="-0.3503" y="2" relative="1" as="geometry">
                        <mxPoint as="offset"/>
                    </mxGeometry>
                </mxCell>
                <mxCell id="a2h8zPHeaeuPfMrSQvJm-51" value="unchecked系列方法" style="rounded=0;whiteSpace=wrap;html=1;fontSize=7;fontFamily=Comic Sans MS;fontStyle=0;strokeColor=none;fillColor=#cdeb8b;align=left;spacingLeft=5;" parent="1" vertex="1">
                    <mxGeometry x="626" y="250.5" width="159" height="59" as="geometry"/>
                </mxCell>
                <mxCell id="a2h8zPHeaeuPfMrSQvJm-53" value="Pin&amp;lt;智能指针&amp;lt;T&amp;gt;&amp;gt;" style="rounded=0;whiteSpace=wrap;html=1;strokeColor=none;fontFamily=Comic Sans MS;fontSize=11;fillColor=#dae8fc;" parent="1" vertex="1">
                    <mxGeometry x="282" y="460" width="97" height="30" as="geometry"/>
                </mxCell>
                <mxCell id="a2h8zPHeaeuPfMrSQvJm-119" value="" style="edgeStyle=orthogonalEdgeStyle;curved=1;orthogonalLoop=1;jettySize=auto;html=1;dashed=1;strokeColor=#FF9999;fontFamily=Comic Sans MS;fontSize=11;fontColor=#CC0000;" parent="1" source="a2h8zPHeaeuPfMrSQvJm-58" target="a2h8zPHeaeuPfMrSQvJm-63" edge="1">
                    <mxGeometry relative="1" as="geometry"/>
                </mxCell>
                <mxCell id="a2h8zPHeaeuPfMrSQvJm-58" value="&lt;span style=&quot;&quot;&gt;new(pointer: P) -&amp;gt; Pin&amp;lt;P&amp;gt;&lt;/span&gt;&lt;br style=&quot;&quot;&gt;&lt;span style=&quot;&quot;&gt;into_inner(pin: Pin&amp;lt;P&amp;gt;) -&amp;gt; P&lt;/span&gt;" style="rounded=0;whiteSpace=wrap;html=1;strokeColor=none;fontFamily=Comic Sans MS;fontSize=11;fontColor=#333333;fillColor=#fcfcfc;align=left;spacingLeft=3;verticalAlign=top;" parent="1" vertex="1">
                    <mxGeometry x="295" y="543" width="223" height="60" as="geometry"/>
                </mxCell>
                <mxCell id="a2h8zPHeaeuPfMrSQvJm-59" value="&lt;h3 style=&quot;box-sizing: border-box; margin: 0px; padding: 0px; border-bottom-color: var(--headings-border-bottom-color); border-bottom-style: none; flex-grow: 1; overflow-wrap: anywhere; background-color: var(--main-background-color); color: rgb(0, 0, 0); font-size: 1px;&quot; class=&quot;code-header in-band&quot;&gt;&lt;span style=&quot;font-weight: normal;&quot;&gt;&lt;a style=&quot;box-sizing: border-box; background-color: transparent; text-decoration-line: none; font-size: 1px;&quot; title=&quot;struct std::pin::Pin&quot; href=&quot;https://doc.rust-lang.org/stable/std/pin/struct.Pin.html&quot; class=&quot;struct&quot;&gt;Pin&lt;/a&gt;&amp;lt;P&amp;gt;&lt;/span&gt;&lt;/h3&gt;&lt;h3 style=&quot;box-sizing: border-box; margin: 0px; padding: 0px; border-bottom-color: var(--headings-border-bottom-color); border-bottom-style: none; flex-grow: 1; overflow-wrap: anywhere; background-color: var(--main-background-color); font-size: 1px;&quot; class=&quot;code-header in-band&quot;&gt;&lt;span style=&quot;font-weight: normal;&quot;&gt;&lt;font color=&quot;#000000&quot;&gt;P:Deref,&amp;lt;P as Deref&amp;gt;::Target: &lt;/font&gt;&lt;font color=&quot;#cc0000&quot;&gt;Unpin&lt;/font&gt;&lt;/span&gt;&lt;/h3&gt;" style="rounded=0;whiteSpace=wrap;html=1;strokeColor=none;fontFamily=Comic Sans MS;fontSize=1;fontColor=#FF0080;fillColor=#FFCCE6;fontStyle=1;align=left;spacingLeft=3;" parent="1" vertex="1">
                    <mxGeometry x="295" y="509" width="223" height="34" as="geometry"/>
                </mxCell>
                <mxCell id="a2h8zPHeaeuPfMrSQvJm-60" value="&lt;font style=&quot;font-size: 11px;&quot;&gt;&lt;font color=&quot;#cc00cc&quot;&gt;&lt;span style=&quot;font-size: 11px;&quot;&gt;new_unchecked(pointer: P) -&amp;gt; Pin&amp;lt;P&amp;gt;&lt;br style=&quot;font-size: 11px;&quot;&gt;&lt;/span&gt;into_inner_unchecked(pin: Pin&amp;lt;P&amp;gt;) -&amp;gt; P&lt;/font&gt;&lt;br&gt;as_ref(&amp;amp;self) -&amp;gt; Pin&amp;lt;&amp;amp;&amp;lt;P as Deref&amp;gt;::Target&amp;gt;&lt;br&gt;&lt;/font&gt;" style="rounded=0;whiteSpace=wrap;html=1;strokeColor=none;fontFamily=Comic Sans MS;fontSize=3;fontColor=#000000;fillColor=#fcfcfc;align=left;spacingLeft=3;verticalAlign=top;" parent="1" vertex="1">
                    <mxGeometry x="22" y="543" width="268" height="60" as="geometry"/>
                </mxCell>
                <mxCell id="a2h8zPHeaeuPfMrSQvJm-61" value="&lt;h3 class=&quot;code-header in-band&quot; style=&quot;box-sizing: border-box; margin: 0px; padding: 0px; border-bottom-color: var(--headings-border-bottom-color); border-bottom-style: none; flex-grow: 1; overflow-wrap: anywhere; background-color: var(--main-background-color); color: rgb(0, 0, 0); font-size: 1px;&quot;&gt;&lt;span style=&quot;font-weight: normal;&quot;&gt;&lt;a class=&quot;struct&quot; href=&quot;https://doc.rust-lang.org/stable/std/pin/struct.Pin.html&quot; title=&quot;struct std::pin::Pin&quot; style=&quot;box-sizing: border-box; background-color: transparent; text-decoration-line: none; font-size: 1px;&quot;&gt;Pin&lt;/a&gt;&amp;lt;P&amp;gt;&lt;/span&gt;&lt;/h3&gt;&lt;h3 class=&quot;code-header in-band&quot; style=&quot;box-sizing: border-box; margin: 0px; padding: 0px; border-bottom-color: var(--headings-border-bottom-color); border-bottom-style: none; flex-grow: 1; overflow-wrap: anywhere; background-color: var(--main-background-color); font-size: 1px;&quot;&gt;&lt;font style=&quot;font-weight: 400;&quot; color=&quot;#000000&quot;&gt;P: Deref&amp;nbsp; &lt;/font&gt;&lt;font color=&quot;#ffffff&quot;&gt;&amp;lt;- mut P&amp;lt;T&amp;gt;、P&amp;lt;T&amp;gt;、&amp;amp;T、&amp;amp;mut T&lt;/font&gt;&lt;/h3&gt;" style="rounded=0;whiteSpace=wrap;html=1;strokeColor=none;fontFamily=Comic Sans MS;fontSize=1;fillColor=#d5e8d4;fontStyle=1;align=left;spacingLeft=3;" parent="1" vertex="1">
                    <mxGeometry x="22" y="509" width="268" height="34" as="geometry"/>
                </mxCell>
                <mxCell id="a2h8zPHeaeuPfMrSQvJm-62" value="get_ref(self) -&amp;gt; &amp;amp;'a T&lt;font color=&quot;#cc00cc&quot;&gt;&lt;span style=&quot;font-size: 11px;&quot;&gt;&lt;br&gt;map_unchecked&amp;lt;U, F&amp;gt;(self, func: F) -&amp;gt; Pin&amp;lt;&amp;amp;'a U&amp;gt;&lt;/span&gt;&lt;br&gt;&lt;/font&gt;" style="rounded=0;whiteSpace=wrap;html=1;strokeColor=none;fontFamily=Comic Sans MS;fontSize=11;fontColor=#000000;fillColor=#fcfcfc;align=left;spacingLeft=3;" parent="1" vertex="1">
                    <mxGeometry x="22" y="641" width="350" height="60" as="geometry"/>
                </mxCell>
                <mxCell id="a2h8zPHeaeuPfMrSQvJm-63" value="&lt;span style=&quot;font-weight: normal;&quot;&gt;Pin&amp;lt;&amp;amp;'a T&amp;gt;&lt;/span&gt;" style="rounded=0;whiteSpace=wrap;html=1;strokeColor=none;fontFamily=Comic Sans MS;fontSize=1;fillColor=#d5e8d4;fontStyle=1;align=left;spacingLeft=3;" parent="1" vertex="1">
                    <mxGeometry x="22" y="607" width="350" height="34" as="geometry"/>
                </mxCell>
                <mxCell id="a2h8zPHeaeuPfMrSQvJm-64" value="&lt;span style=&quot;font-size: 11px;&quot;&gt;as_mut(&amp;amp;mut self) -&amp;gt; Pin&amp;lt;&amp;amp;mut &amp;lt;P as Deref&amp;gt;::Target&amp;gt;&lt;/span&gt;&lt;br&gt;&lt;span style=&quot;font-size: 11px;&quot;&gt;&lt;font color=&quot;#009999&quot;&gt;set(&amp;amp;mut self, value: &amp;lt;P as Deref&amp;gt;::Target)&lt;br&gt;&amp;lt;P as Deref&amp;gt;::Target: Sized&lt;br&gt;&lt;/font&gt;&lt;/span&gt;" style="rounded=0;whiteSpace=wrap;html=1;strokeColor=none;fontFamily=Comic Sans MS;fontSize=11;fontColor=#000000;fillColor=#fcfcfc;align=left;spacingLeft=3;" parent="1" vertex="1">
                    <mxGeometry x="522" y="543" width="262" height="60" as="geometry"/>
                </mxCell>
                <mxCell id="a2h8zPHeaeuPfMrSQvJm-65" value="&lt;h3 style=&quot;background-color: var(--main-background-color); box-sizing: border-box; margin: 0px; padding: 0px; border-bottom-color: var(--headings-border-bottom-color); border-bottom-style: none; flex-grow: 1; overflow-wrap: anywhere; color: rgb(0, 0, 0); font-size: 1px;&quot; class=&quot;code-header in-band&quot;&gt;&lt;span style=&quot;font-weight: normal;&quot;&gt;&lt;a style=&quot;box-sizing: border-box; background-color: transparent; text-decoration-line: none;&quot; class=&quot;struct&quot; href=&quot;https://doc.rust-lang.org/stable/std/pin/struct.Pin.html&quot; title=&quot;struct std::pin::Pin&quot;&gt;Pin&lt;/a&gt;&amp;lt;P&amp;gt;&lt;/span&gt;&lt;/h3&gt;&lt;h3 style=&quot;background-color: var(--main-background-color); box-sizing: border-box; margin: 0px; padding: 0px; border-bottom-color: var(--headings-border-bottom-color); border-bottom-style: none; flex-grow: 1; overflow-wrap: anywhere; font-size: 1px;&quot; class=&quot;code-header in-band&quot;&gt;&lt;font style=&quot;font-weight: normal;&quot; color=&quot;#000000&quot;&gt;P: DerefMut&amp;nbsp;&lt;/font&gt;&lt;font style=&quot;&quot; color=&quot;#ffffff&quot;&gt;&amp;lt;- mut P&amp;lt;T&amp;gt;、&amp;amp;mut T&lt;/font&gt;&lt;/h3&gt;" style="rounded=0;whiteSpace=wrap;html=1;strokeColor=none;fontFamily=Comic Sans MS;fontSize=1;fillColor=#d5e8d4;fontStyle=1;align=left;spacingLeft=3;" parent="1" vertex="1">
                    <mxGeometry x="522" y="509" width="262" height="34" as="geometry"/>
                </mxCell>
                <mxCell id="a2h8zPHeaeuPfMrSQvJm-66" value="&lt;div&gt;&lt;font color=&quot;#ff66b3&quot;&gt;get_mut(self) -&amp;gt; &amp;amp;'a mut T where&amp;nbsp;&lt;/font&gt;&lt;span style=&quot;background-color: initial;&quot;&gt;&lt;font color=&quot;#cc0000&quot;&gt;T: Unpin&lt;/font&gt;&lt;/span&gt;&lt;/div&gt;&lt;div&gt;&lt;div&gt;&lt;span style=&quot;color: rgb(204, 0, 204); background-color: initial;&quot;&gt;get_unchecked_mut(self) -&amp;gt; &amp;amp;'a mut T&lt;/span&gt;&lt;br&gt;&lt;/div&gt;&lt;div&gt;&lt;span style=&quot;background-color: initial;&quot;&gt;&lt;font color=&quot;#cc00cc&quot;&gt;map_unchecked_mut&amp;lt;U, F&amp;gt;(self, func: F) -&amp;gt; Pin&amp;lt;&amp;amp;'a mut U&amp;gt;, U:?Sized&lt;/font&gt;&lt;/span&gt;&lt;/div&gt;&lt;/div&gt;&lt;span style=&quot;font-size: 11px;&quot;&gt;into_ref(self) -&amp;gt; Pin&amp;lt;&amp;amp;'a T&amp;gt;&lt;br&gt;&lt;/span&gt;" style="rounded=0;whiteSpace=wrap;html=1;strokeColor=none;fontFamily=Comic Sans MS;fontSize=11;fontColor=#000000;fillColor=#fcfcfc;align=left;spacingLeft=3;" parent="1" vertex="1">
                    <mxGeometry x="376" y="641" width="408" height="60" as="geometry"/>
                </mxCell>
                <mxCell id="a2h8zPHeaeuPfMrSQvJm-67" value="&lt;span style=&quot;font-weight: normal;&quot;&gt;Pin&amp;lt;&amp;amp;'a mut T&amp;gt;&lt;br&gt;T: ?Sized&lt;br&gt;&lt;/span&gt;" style="rounded=0;whiteSpace=wrap;html=1;strokeColor=none;fontFamily=Comic Sans MS;fontSize=1;fillColor=#d5e8d4;fontStyle=1;align=left;spacingLeft=3;" parent="1" vertex="1">
                    <mxGeometry x="376" y="607" width="408" height="34" as="geometry"/>
                </mxCell>
                <mxCell id="a2h8zPHeaeuPfMrSQvJm-69" value="&lt;span style=&quot;font-size: 11px;&quot;&gt;static_ref(r: &amp;amp;'static T) -&amp;gt; Pin&amp;lt;&amp;amp;'static T&amp;gt;&lt;/span&gt;" style="rounded=0;whiteSpace=wrap;html=1;strokeColor=none;fontFamily=Comic Sans MS;fontSize=11;fontColor=#000000;fillColor=#FCFCFC;align=left;spacingLeft=3;" parent="1" vertex="1">
                    <mxGeometry x="22" y="739" width="268" height="60" as="geometry"/>
                </mxCell>
                <mxCell id="a2h8zPHeaeuPfMrSQvJm-70" value="&lt;div&gt;&lt;span style=&quot;font-size: 1px; font-weight: 400;&quot;&gt;Pin&amp;lt;&amp;amp;'static T&amp;gt;&lt;/span&gt;&lt;/div&gt;&lt;div&gt;&lt;span style=&quot;font-size: 1px; font-weight: 400;&quot;&gt;T: ?Sized,&lt;/span&gt;&lt;/div&gt;" style="rounded=0;whiteSpace=wrap;html=1;strokeColor=none;fontFamily=Comic Sans MS;fontSize=1;fillColor=#d5e8d4;fontStyle=1;align=left;spacingLeft=3;" parent="1" vertex="1">
                    <mxGeometry x="22" y="705" width="268" height="34" as="geometry"/>
                </mxCell>
                <mxCell id="a2h8zPHeaeuPfMrSQvJm-71" value="&lt;span style=&quot;font-size: 11px;&quot;&gt;static_mut(r: &amp;amp;'static mut T) -&amp;gt; Pin&amp;lt;&amp;amp;'static mut T&amp;gt;&lt;/span&gt;" style="rounded=0;whiteSpace=wrap;html=1;strokeColor=none;fontFamily=Comic Sans MS;fontSize=11;fontColor=#000000;fillColor=#fcfcfc;align=left;spacingLeft=3;" parent="1" vertex="1">
                    <mxGeometry x="295" y="739" width="490" height="60" as="geometry"/>
                </mxCell>
                <mxCell id="a2h8zPHeaeuPfMrSQvJm-74" value="" style="endArrow=none;html=1;rounded=0;strokeColor=#CCCCCC;fontFamily=Comic Sans MS;fontSize=11;fontColor=#CC0000;entryX=1;entryY=0.5;entryDx=0;entryDy=0;exitX=0;exitY=0;exitDx=0;exitDy=0;" parent="1" source="a2h8zPHeaeuPfMrSQvJm-51" target="a2h8zPHeaeuPfMrSQvJm-11" edge="1">
                    <mxGeometry width="50" height="50" relative="1" as="geometry">
                        <mxPoint x="617" y="449" as="sourcePoint"/>
                        <mxPoint x="667" y="399" as="targetPoint"/>
                    </mxGeometry>
                </mxCell>
                <mxCell id="a2h8zPHeaeuPfMrSQvJm-75" value="" style="endArrow=none;html=1;rounded=0;strokeColor=#CCCCCC;fontFamily=Comic Sans MS;fontSize=11;fontColor=#CC0000;entryX=1;entryY=0.5;entryDx=0;entryDy=0;exitX=0;exitY=0.5;exitDx=0;exitDy=0;" parent="1" source="a2h8zPHeaeuPfMrSQvJm-51" target="a2h8zPHeaeuPfMrSQvJm-17" edge="1">
                    <mxGeometry width="50" height="50" relative="1" as="geometry">
                        <mxPoint x="637" y="261" as="sourcePoint"/>
                        <mxPoint x="621" y="220" as="targetPoint"/>
                    </mxGeometry>
                </mxCell>
                <mxCell id="a2h8zPHeaeuPfMrSQvJm-76" value="" style="endArrow=none;html=1;rounded=0;strokeColor=#CCCCCC;fontFamily=Comic Sans MS;fontSize=11;fontColor=#CC0000;entryX=1;entryY=0.5;entryDx=0;entryDy=0;exitX=0;exitY=0.5;exitDx=0;exitDy=0;" parent="1" source="a2h8zPHeaeuPfMrSQvJm-33" target="a2h8zPHeaeuPfMrSQvJm-32" edge="1">
                    <mxGeometry width="50" height="50" relative="1" as="geometry">
                        <mxPoint x="647" y="271" as="sourcePoint"/>
                        <mxPoint x="631" y="230" as="targetPoint"/>
                    </mxGeometry>
                </mxCell>
                <mxCell id="a2h8zPHeaeuPfMrSQvJm-77" value="" style="endArrow=none;html=1;rounded=0;strokeColor=#CCCCCC;fontFamily=Comic Sans MS;fontSize=11;fontColor=#CC0000;entryX=1;entryY=0.5;entryDx=0;entryDy=0;exitX=0;exitY=0.5;exitDx=0;exitDy=0;" parent="1" source="a2h8zPHeaeuPfMrSQvJm-21" target="a2h8zPHeaeuPfMrSQvJm-11" edge="1">
                    <mxGeometry width="50" height="50" relative="1" as="geometry">
                        <mxPoint x="657" y="281" as="sourcePoint"/>
                        <mxPoint x="641" y="240" as="targetPoint"/>
                    </mxGeometry>
                </mxCell>
                <mxCell id="a2h8zPHeaeuPfMrSQvJm-105" value="&lt;div&gt;&lt;span style=&quot;font-size: 1px; font-weight: 400;&quot;&gt;Pin&amp;lt;&amp;amp;'static mut T&amp;gt;&lt;/span&gt;&lt;/div&gt;&lt;div&gt;&lt;span style=&quot;font-size: 1px; font-weight: 400;&quot;&gt;T: ?Sized,&lt;/span&gt;&lt;/div&gt;" style="rounded=0;whiteSpace=wrap;html=1;strokeColor=none;fontFamily=Comic Sans MS;fontSize=1;fillColor=#d5e8d4;fontStyle=1;align=left;spacingLeft=3;" parent="1" vertex="1">
                    <mxGeometry x="295" y="705" width="490" height="34" as="geometry"/>
                </mxCell>
                <mxCell id="a2h8zPHeaeuPfMrSQvJm-108" value="" style="endArrow=classic;startArrow=classic;html=1;strokeColor=#CC0000;fontFamily=Comic Sans MS;fontSize=11;fontColor=#009999;entryX=0.833;entryY=0.999;entryDx=0;entryDy=0;exitX=0.547;exitY=0.05;exitDx=0;exitDy=0;exitPerimeter=0;entryPerimeter=0;curved=1;dashed=1;" parent="1" source="a2h8zPHeaeuPfMrSQvJm-66" target="a2h8zPHeaeuPfMrSQvJm-59" edge="1">
                    <mxGeometry width="50" height="50" relative="1" as="geometry">
                        <mxPoint x="455" y="481" as="sourcePoint"/>
                        <mxPoint x="505" y="431" as="targetPoint"/>
                        <Array as="points">
                            <mxPoint x="597" y="624"/>
                            <mxPoint x="495" y="608"/>
                        </Array>
                    </mxGeometry>
                </mxCell>
                <mxCell id="a2h8zPHeaeuPfMrSQvJm-111" value="Unpin" style="edgeLabel;html=1;align=center;verticalAlign=middle;resizable=0;points=[];fontSize=11;fontFamily=Comic Sans MS;fontColor=#CC0000;labelBackgroundColor=#E6E6E6;" parent="a2h8zPHeaeuPfMrSQvJm-108" vertex="1" connectable="0">
                    <mxGeometry x="0.3907" y="-8" relative="1" as="geometry">
                        <mxPoint x="-4" y="-18" as="offset"/>
                    </mxGeometry>
                </mxCell>
                <mxCell id="a2h8zPHeaeuPfMrSQvJm-112" value="" style="endArrow=classic;startArrow=classic;html=1;dashed=1;strokeColor=#FF9999;fontFamily=Comic Sans MS;fontSize=11;fontColor=#CC0000;curved=1;exitX=0.776;exitY=0.25;exitDx=0;exitDy=0;exitPerimeter=0;" parent="1" source="a2h8zPHeaeuPfMrSQvJm-60" edge="1">
                    <mxGeometry width="50" height="50" relative="1" as="geometry">
                        <mxPoint x="64" y="484" as="sourcePoint"/>
                        <mxPoint x="299" y="558" as="targetPoint"/>
                    </mxGeometry>
                </mxCell>
                <mxCell id="a2h8zPHeaeuPfMrSQvJm-113" value="" style="endArrow=classic;startArrow=classic;html=1;dashed=1;strokeColor=#FF9999;fontFamily=Comic Sans MS;fontSize=11;fontColor=#CC0000;curved=1;" parent="1" edge="1">
                    <mxGeometry width="50" height="50" relative="1" as="geometry">
                        <mxPoint x="315" y="680" as="sourcePoint"/>
                        <mxPoint x="374" y="680" as="targetPoint"/>
                    </mxGeometry>
                </mxCell>
                <mxCell id="a2h8zPHeaeuPfMrSQvJm-116" value="" style="endArrow=classic;startArrow=classic;html=1;dashed=1;strokeColor=#FF9999;fontFamily=Comic Sans MS;fontSize=11;fontColor=#CC0000;curved=1;exitX=0.776;exitY=0.25;exitDx=0;exitDy=0;exitPerimeter=0;" parent="1" edge="1">
                    <mxGeometry width="50" height="50" relative="1" as="geometry">
                        <mxPoint x="241.99799999999962" y="571" as="sourcePoint"/>
                        <mxPoint x="298" y="571" as="targetPoint"/>
                    </mxGeometry>
                </mxCell>
                <mxCell id="a2h8zPHeaeuPfMrSQvJm-118" value="" style="endArrow=classic;startArrow=classic;html=1;dashed=1;strokeColor=#FF9999;fontFamily=Comic Sans MS;fontSize=11;fontColor=#CC0000;curved=1;exitX=0.429;exitY=0.383;exitDx=0;exitDy=0;exitPerimeter=0;" parent="1" edge="1">
                    <mxGeometry width="50" height="50" relative="1" as="geometry">
                        <mxPoint x="181.1500000000001" y="660.98" as="sourcePoint"/>
                        <mxPoint x="375" y="661" as="targetPoint"/>
                    </mxGeometry>
                </mxCell>
                <mxCell id="a2h8zPHeaeuPfMrSQvJm-120" value="" style="shape=curlyBracket;whiteSpace=wrap;html=1;rounded=1;labelPosition=left;verticalLabelPosition=middle;align=right;verticalAlign=middle;labelBackgroundColor=#E6E6E6;strokeColor=#FF99CC;fontFamily=Comic Sans MS;fontSize=11;fontColor=#CC0000;fillColor=none;" parent="1" vertex="1">
                    <mxGeometry x="374" y="647" width="5" height="26" as="geometry"/>
                </mxCell>
                <mxCell id="a2h8zPHeaeuPfMrSQvJm-123" value="" style="endArrow=classic;html=1;dashed=1;strokeColor=#FF9999;fontFamily=Comic Sans MS;fontSize=11;fontColor=#CC0000;curved=1;exitX=0.007;exitY=0.883;exitDx=0;exitDy=0;exitPerimeter=0;" parent="1" source="a2h8zPHeaeuPfMrSQvJm-66" edge="1">
                    <mxGeometry width="50" height="50" relative="1" as="geometry">
                        <mxPoint x="620" y="516" as="sourcePoint"/>
                        <mxPoint x="101" y="624" as="targetPoint"/>
                        <Array as="points">
                            <mxPoint x="292" y="643"/>
                        </Array>
                    </mxGeometry>
                </mxCell>
                <mxCell id="a2h8zPHeaeuPfMrSQvJm-124" value="&lt;font style=&quot;&quot; color=&quot;#336600&quot;&gt;安&lt;br&gt;全&lt;br&gt;&lt;/font&gt;" style="rounded=0;whiteSpace=wrap;html=1;labelBackgroundColor=#E6E6E6;strokeColor=none;fontFamily=Comic Sans MS;fontSize=11;fontColor=#CC0000;fillColor=#CCCCFF;" parent="1" vertex="1">
                    <mxGeometry x="410" y="431" width="26" height="60" as="geometry"/>
                </mxCell>
                <mxCell id="a2h8zPHeaeuPfMrSQvJm-126" value="Pin提供的所有unsafe函数,都要求程序员遵守以下安全契约:&lt;br style=&quot;&quot;&gt;&lt;b&gt;在执行非安全操作后,确保Pin&amp;lt;P&amp;gt;中P指向的值不被移动&lt;/b&gt;&lt;br&gt;反例: Pin&amp;lt;Rc&amp;lt;T&amp;gt;&amp;gt;" style="rounded=0;whiteSpace=wrap;html=1;labelBackgroundColor=#FFFFFF;strokeColor=none;fontFamily=Comic Sans MS;fontSize=11;fontColor=#336600;fillColor=#fcfcfc;align=left;" parent="1" vertex="1">
                    <mxGeometry x="436" y="432" width="347" height="59" as="geometry"/>
                </mxCell>
                <mxCell id="K1LJZHESOqhdcxzBjjFp-3" value="&lt;font color=&quot;#336600&quot;&gt;锁&lt;br&gt;定&lt;/font&gt;" style="rounded=0;whiteSpace=wrap;html=1;labelBackgroundColor=#E6E6E6;strokeColor=none;fontFamily=Comic Sans MS;fontSize=11;fontColor=#CC0000;fillColor=#CCCCFF;" parent="1" vertex="1">
                    <mxGeometry x="410" y="371" width="26" height="59" as="geometry"/>
                </mxCell>
                <mxCell id="K1LJZHESOqhdcxzBjjFp-4" value="锁定位置: 将Pin&amp;lt;P&amp;gt;作为操作数据的入口,P是实现Deref的指针&lt;br&gt;移动保证: 被Pin后不要通过其他入口移动值" style="rounded=0;whiteSpace=wrap;html=1;labelBackgroundColor=#FFFFFF;strokeColor=none;fontFamily=Comic Sans MS;fontSize=11;fontColor=#336600;fillColor=#fcfcfc;align=left;" parent="1" vertex="1">
                    <mxGeometry x="436" y="372" width="347" height="58" as="geometry"/>
                </mxCell>
                <mxCell id="GXiYwfgpUblenV1lCL1P-1" value="Pin&amp;lt;P&amp;gt;实现特征: Deref,DerefMut,Future,AsyncIterator,Eq,PartialEq,Ord,PartialOrd,Copy,Debug,clone,Hash&lt;br&gt;其中P约束为: P也是实现了这些特征....这些特征的实现使得&lt;b&gt;Pin在某些场景使用起来等价于其所指向的值,跟&lt;font color=&quot;#ff0000&quot;&gt;透明&lt;/font&gt;的一样&lt;/b&gt;" style="rounded=0;whiteSpace=wrap;html=1;align=left;fillColor=#f2f2f2;spacingLeft=5;strokeColor=none;" parent="1" vertex="1">
                    <mxGeometry x="22" y="809" width="763" height="60" as="geometry"/>
                </mxCell>
                <mxCell id="2" value="Pin&amp;lt;P&amp;lt;T&amp;gt;&amp;gt;" style="rounded=0;whiteSpace=wrap;html=1;fillColor=#a0522d;strokeColor=#6D1F00;fontColor=#ffffff;fontStyle=1;fontSize=14;" vertex="1" parent="1">
                    <mxGeometry x="51" y="-478" width="140" height="60" as="geometry"/>
                </mxCell>
                <mxCell id="5" value="get_mut()" style="rounded=1;whiteSpace=wrap;html=1;fillColor=#f5f5f5;strokeColor=#666666;fontColor=#333333;" vertex="1" parent="1">
                    <mxGeometry x="350" y="-682.5" width="138" height="28" as="geometry"/>
                </mxCell>
                <mxCell id="8" value="get_unchecked_mut()" style="rounded=1;whiteSpace=wrap;html=1;fillColor=#fad9d5;strokeColor=#ae4132;" vertex="1" parent="1">
                    <mxGeometry x="355" y="-281" width="135" height="30" as="geometry"/>
                </mxCell>
                <mxCell id="9" value="&amp;amp;mut T" style="rounded=0;whiteSpace=wrap;html=1;fillColor=#1ba1e2;strokeColor=#006EAF;fontColor=#ffffff;fontStyle=1;fontSize=14;" vertex="1" parent="1">
                    <mxGeometry x="612" y="-698" width="120" height="60" as="geometry"/>
                </mxCell>
                <mxCell id="10" value="as_mut()" style="rounded=1;whiteSpace=wrap;html=1;fillColor=#f5f5f5;strokeColor=#666666;fontColor=#333333;" vertex="1" parent="1">
                    <mxGeometry x="51" y="-361" width="139" height="31" as="geometry"/>
                </mxCell>
                <mxCell id="11" value="Pin&amp;lt;&amp;amp;mut T&amp;gt;" style="rounded=0;whiteSpace=wrap;html=1;fillColor=#a0522d;strokeColor=#6D1F00;fontColor=#ffffff;fontStyle=1;fontSize=14;" vertex="1" parent="1">
                    <mxGeometry x="53.25" y="-285" width="136" height="60" as="geometry"/>
                </mxCell>
                <mxCell id="12" value="as_ref()" style="rounded=1;whiteSpace=wrap;html=1;fillColor=#f5f5f5;strokeColor=#666666;fontColor=#333333;" vertex="1" parent="1">
                    <mxGeometry x="352" y="-555.5" width="138" height="31" as="geometry"/>
                </mxCell>
                <mxCell id="13" value="Pin&amp;lt;&amp;amp;T&amp;gt;" style="rounded=0;whiteSpace=wrap;html=1;fillColor=#a0522d;strokeColor=#6D1F00;fontColor=#ffffff;fontStyle=1;fontSize=14;" vertex="1" parent="1">
                    <mxGeometry x="355" y="-434" width="132" height="60" as="geometry"/>
                </mxCell>
                <mxCell id="14" value="get_ref()" style="rounded=1;whiteSpace=wrap;html=1;fillColor=#f5f5f5;strokeColor=#666666;fontColor=#333333;" vertex="1" parent="1">
                    <mxGeometry x="602.75" y="-432" width="136" height="28" as="geometry"/>
                </mxCell>
                <mxCell id="16" value="into_inner()" style="rounded=1;whiteSpace=wrap;html=1;fillColor=#f5f5f5;strokeColor=#666666;fontColor=#333333;" vertex="1" parent="1">
                    <mxGeometry x="350" y="-646.5" width="138" height="28" as="geometry"/>
                </mxCell>
                <mxCell id="17" value="" style="endArrow=classic;html=1;exitX=1;exitY=0.5;exitDx=0;exitDy=0;entryX=0;entryY=0.5;entryDx=0;entryDy=0;" edge="1" parent="1" source="5" target="9">
                    <mxGeometry width="50" height="50" relative="1" as="geometry">
                        <mxPoint x="527" y="-329" as="sourcePoint"/>
                        <mxPoint x="577" y="-379" as="targetPoint"/>
                    </mxGeometry>
                </mxCell>
                <mxCell id="18" value="T" style="rounded=0;whiteSpace=wrap;html=1;fillColor=#1ba1e2;strokeColor=#006EAF;fontColor=#ffffff;fontStyle=1;fontSize=14;" vertex="1" parent="1">
                    <mxGeometry x="611.5" y="-625" width="120" height="60" as="geometry"/>
                </mxCell>
                <mxCell id="19" value="" style="endArrow=classic;html=1;exitX=1;exitY=0.5;exitDx=0;exitDy=0;entryX=0;entryY=0.5;entryDx=0;entryDy=0;" edge="1" parent="1" source="16" target="18">
                    <mxGeometry width="50" height="50" relative="1" as="geometry">
                        <mxPoint x="527" y="-329" as="sourcePoint"/>
                        <mxPoint x="577" y="-379" as="targetPoint"/>
                        <Array as="points">
                            <mxPoint x="510" y="-595"/>
                        </Array>
                    </mxGeometry>
                </mxCell>
                <mxCell id="22" value="&amp;amp;T" style="rounded=0;whiteSpace=wrap;html=1;fillColor=#1ba1e2;strokeColor=#006EAF;fontColor=#ffffff;fontStyle=1;fontSize=14;" vertex="1" parent="1">
                    <mxGeometry x="611" y="-555.5" width="120" height="60" as="geometry"/>
                </mxCell>
                <mxCell id="24" value="into_ref()" style="rounded=1;whiteSpace=wrap;html=1;fillColor=#f5f5f5;strokeColor=#666666;fontColor=#333333;" vertex="1" parent="1">
                    <mxGeometry x="355" y="-319" width="133.37" height="30" as="geometry"/>
                </mxCell>
                <mxCell id="25" value="" style="endArrow=classic;html=1;exitX=1;exitY=0.5;exitDx=0;exitDy=0;entryX=0;entryY=0.5;entryDx=0;entryDy=0;" edge="1" parent="1" source="11" target="24">
                    <mxGeometry width="50" height="50" relative="1" as="geometry">
                        <mxPoint x="353.5" y="-350" as="sourcePoint"/>
                        <mxPoint x="403.5" y="-400" as="targetPoint"/>
                        <Array as="points">
                            <mxPoint x="219" y="-304"/>
                        </Array>
                    </mxGeometry>
                </mxCell>
                <mxCell id="26" value="" style="endArrow=classic;html=1;" edge="1" parent="1" source="24" target="13">
                    <mxGeometry width="50" height="50" relative="1" as="geometry">
                        <mxPoint x="353.5" y="-350" as="sourcePoint"/>
                        <mxPoint x="403.5" y="-400" as="targetPoint"/>
                    </mxGeometry>
                </mxCell>
                <mxCell id="27" value="Pin::new(p)" style="rounded=1;whiteSpace=wrap;html=1;fillColor=#f5f5f5;strokeColor=#666666;fontColor=#333333;" vertex="1" parent="1">
                    <mxGeometry x="51" y="-609" width="140.5" height="31" as="geometry"/>
                </mxCell>
                <mxCell id="28" value="Pin::new_unchecked(p)" style="rounded=1;whiteSpace=wrap;html=1;fillColor=#fad9d5;strokeColor=#ae4132;" vertex="1" parent="1">
                    <mxGeometry x="51" y="-578" width="140.5" height="30" as="geometry"/>
                </mxCell>
                <mxCell id="29" value="" style="endArrow=classic;html=1;exitX=0.5;exitY=1;exitDx=0;exitDy=0;" edge="1" parent="1" source="28" target="2">
                    <mxGeometry width="50" height="50" relative="1" as="geometry">
                        <mxPoint x="417" y="-459" as="sourcePoint"/>
                        <mxPoint x="467" y="-509" as="targetPoint"/>
                    </mxGeometry>
                </mxCell>
                <mxCell id="30" value="set(v)" style="rounded=1;whiteSpace=wrap;html=1;fillColor=#f5f5f5;strokeColor=#666666;fontColor=#333333;" vertex="1" parent="1">
                    <mxGeometry x="51" y="-404" width="140.5" height="30" as="geometry"/>
                </mxCell>
                <mxCell id="32" value="into_inner_unchecked()" style="rounded=1;whiteSpace=wrap;html=1;fillColor=#f5f5f5;strokeColor=#666666;fontColor=#333333;" vertex="1" parent="1">
                    <mxGeometry x="355" y="-243" width="135" height="29" as="geometry"/>
                </mxCell>
                <mxCell id="33" value="" style="endArrow=classic;html=1;entryX=0;entryY=0.75;entryDx=0;entryDy=0;exitX=1;exitY=0.5;exitDx=0;exitDy=0;" edge="1" parent="1" source="32" target="18">
                    <mxGeometry width="50" height="50" relative="1" as="geometry">
                        <mxPoint x="472" y="-333" as="sourcePoint"/>
                        <mxPoint x="522" y="-383" as="targetPoint"/>
                        <Array as="points">
                            <mxPoint x="562" y="-228"/>
                            <mxPoint x="570" y="-578"/>
                        </Array>
                    </mxGeometry>
                </mxCell>
                <mxCell id="34" value="" style="endArrow=classic;html=1;entryX=0;entryY=0.75;entryDx=0;entryDy=0;exitX=1;exitY=0.5;exitDx=0;exitDy=0;" edge="1" parent="1" source="8" target="9">
                    <mxGeometry width="50" height="50" relative="1" as="geometry">
                        <mxPoint x="472" y="-333" as="sourcePoint"/>
                        <mxPoint x="522" y="-383" as="targetPoint"/>
                        <Array as="points">
                            <mxPoint x="548" y="-266"/>
                            <mxPoint x="559" y="-653"/>
                        </Array>
                    </mxGeometry>
                </mxCell>
                <mxCell id="36" value="map_unchecked" style="rounded=1;whiteSpace=wrap;html=1;fillColor=#fad9d5;strokeColor=#ae4132;" vertex="1" parent="1">
                    <mxGeometry x="603.25" y="-399" width="137" height="31" as="geometry"/>
                </mxCell>
                <mxCell id="37" value="map_unchecked_mut" style="rounded=1;whiteSpace=wrap;html=1;fillColor=#fad9d5;strokeColor=#ae4132;" vertex="1" parent="1">
                    <mxGeometry x="355" y="-206" width="136" height="32" as="geometry"/>
                </mxCell>
                <mxCell id="38" value="Pin&amp;lt;&amp;amp;U&amp;gt;" style="rounded=0;whiteSpace=wrap;html=1;fillColor=#e3c800;strokeColor=#B09500;fontColor=#000000;fontStyle=1;fontSize=14;" vertex="1" parent="1">
                    <mxGeometry x="612" y="-289" width="120" height="60" as="geometry"/>
                </mxCell>
                <mxCell id="39" value="Pin&amp;lt;&amp;amp;mut U&amp;gt;" style="rounded=0;whiteSpace=wrap;html=1;fillColor=#e3c800;strokeColor=#B09500;fontColor=#000000;fontStyle=1;fontSize=14;" vertex="1" parent="1">
                    <mxGeometry x="612" y="-220" width="120" height="60" as="geometry"/>
                </mxCell>
                <mxCell id="41" value="" style="endArrow=classic;html=1;exitX=0.5;exitY=1;exitDx=0;exitDy=0;" edge="1" parent="1" source="36" target="38">
                    <mxGeometry width="50" height="50" relative="1" as="geometry">
                        <mxPoint x="472" y="-333" as="sourcePoint"/>
                        <mxPoint x="522" y="-383" as="targetPoint"/>
                    </mxGeometry>
                </mxCell>
                <mxCell id="42" value="" style="endArrow=classic;html=1;exitX=1;exitY=0.5;exitDx=0;exitDy=0;entryX=0;entryY=0.5;entryDx=0;entryDy=0;" edge="1" parent="1" source="37" target="39">
                    <mxGeometry width="50" height="50" relative="1" as="geometry">
                        <mxPoint x="472" y="-333" as="sourcePoint"/>
                        <mxPoint x="522" y="-383" as="targetPoint"/>
                    </mxGeometry>
                </mxCell>
                <mxCell id="44" value="into_inner_unchecked()" style="rounded=1;whiteSpace=wrap;html=1;fillColor=#fad9d5;strokeColor=#ae4132;" vertex="1" parent="1">
                    <mxGeometry x="351" y="-600" width="138" height="30.5" as="geometry"/>
                </mxCell>
                <mxCell id="46" value="T: Unpin" style="ellipse;whiteSpace=wrap;html=1;rounded=1;fillColor=#dae8fc;strokeColor=#6c8ebf;" vertex="1" parent="1">
                    <mxGeometry x="238" y="-666" width="80" height="32" as="geometry"/>
                </mxCell>
                <mxCell id="47" value="P: Deref" style="ellipse;whiteSpace=wrap;html=1;rounded=1;fillColor=#dae8fc;strokeColor=#6c8ebf;" vertex="1" parent="1">
                    <mxGeometry x="238" y="-577" width="80" height="32" as="geometry"/>
                </mxCell>
                <mxCell id="48" value="P: DerefMut" style="ellipse;whiteSpace=wrap;html=1;rounded=1;fillColor=#dae8fc;strokeColor=#6c8ebf;" vertex="1" parent="1">
                    <mxGeometry x="238" y="-464" width="80" height="32" as="geometry"/>
                </mxCell>
                <mxCell id="49" value="" style="endArrow=classic;html=1;exitX=1;exitY=0.5;exitDx=0;exitDy=0;entryX=0;entryY=0.5;entryDx=0;entryDy=0;" edge="1" parent="1" source="2" target="46">
                    <mxGeometry width="50" height="50" relative="1" as="geometry">
                        <mxPoint x="436" y="-333" as="sourcePoint"/>
                        <mxPoint x="486" y="-383" as="targetPoint"/>
                        <Array as="points">
                            <mxPoint x="219" y="-645"/>
                        </Array>
                    </mxGeometry>
                </mxCell>
                <mxCell id="50" value="" style="endArrow=classic;html=1;exitX=1;exitY=0.5;exitDx=0;exitDy=0;entryX=0;entryY=0.5;entryDx=0;entryDy=0;" edge="1" parent="1" source="2" target="47">
                    <mxGeometry width="50" height="50" relative="1" as="geometry">
                        <mxPoint x="436" y="-333" as="sourcePoint"/>
                        <mxPoint x="486" y="-383" as="targetPoint"/>
                        <Array as="points">
                            <mxPoint x="219" y="-548"/>
                        </Array>
                    </mxGeometry>
                </mxCell>
                <mxCell id="51" value="" style="endArrow=classic;html=1;exitX=1;exitY=0.5;exitDx=0;exitDy=0;" edge="1" parent="1" source="2" target="48">
                    <mxGeometry width="50" height="50" relative="1" as="geometry">
                        <mxPoint x="436" y="-333" as="sourcePoint"/>
                        <mxPoint x="486" y="-383" as="targetPoint"/>
                    </mxGeometry>
                </mxCell>
                <mxCell id="52" value="" style="endArrow=classic;html=1;exitX=0.5;exitY=1;exitDx=0;exitDy=0;" edge="1" parent="1" source="10" target="11">
                    <mxGeometry width="50" height="50" relative="1" as="geometry">
                        <mxPoint x="436" y="-333" as="sourcePoint"/>
                        <mxPoint x="486" y="-383" as="targetPoint"/>
                    </mxGeometry>
                </mxCell>
                <mxCell id="53" value="" style="endArrow=classic;html=1;entryX=1;entryY=0.5;entryDx=0;entryDy=0;exitX=0.5;exitY=1;exitDx=0;exitDy=0;" edge="1" parent="1" source="48" target="30">
                    <mxGeometry width="50" height="50" relative="1" as="geometry">
                        <mxPoint x="338.99999999999636" y="-444" as="sourcePoint"/>
                        <mxPoint x="553" y="-382" as="targetPoint"/>
                        <Array as="points">
                            <mxPoint x="278" y="-389"/>
                        </Array>
                    </mxGeometry>
                </mxCell>
                <mxCell id="54" value="" style="endArrow=classic;html=1;entryX=1;entryY=0.5;entryDx=0;entryDy=0;exitX=1;exitY=1;exitDx=0;exitDy=0;" edge="1" parent="1" source="48" target="10">
                    <mxGeometry width="50" height="50" relative="1" as="geometry">
                        <mxPoint x="338.99999999999636" y="-444" as="sourcePoint"/>
                        <mxPoint x="553" y="-382" as="targetPoint"/>
                        <Array as="points">
                            <mxPoint x="306" y="-345"/>
                        </Array>
                    </mxGeometry>
                </mxCell>
                <mxCell id="55" value="" style="endArrow=classic;html=1;exitX=1;exitY=0.5;exitDx=0;exitDy=0;entryX=0;entryY=0.5;entryDx=0;entryDy=0;" edge="1" parent="1" source="11" target="8">
                    <mxGeometry width="50" height="50" relative="1" as="geometry">
                        <mxPoint x="436" y="-333" as="sourcePoint"/>
                        <mxPoint x="486" y="-383" as="targetPoint"/>
                        <Array as="points">
                            <mxPoint x="223" y="-266"/>
                        </Array>
                    </mxGeometry>
                </mxCell>
                <mxCell id="56" value="" style="endArrow=classic;html=1;exitX=1;exitY=0.5;exitDx=0;exitDy=0;entryX=0;entryY=0.5;entryDx=0;entryDy=0;" edge="1" parent="1" source="11" target="32">
                    <mxGeometry width="50" height="50" relative="1" as="geometry">
                        <mxPoint x="436" y="-333" as="sourcePoint"/>
                        <mxPoint x="486" y="-383" as="targetPoint"/>
                        <Array as="points">
                            <mxPoint x="218" y="-231"/>
                        </Array>
                    </mxGeometry>
                </mxCell>
                <mxCell id="57" value="" style="endArrow=classic;html=1;exitX=1;exitY=0.5;exitDx=0;exitDy=0;entryX=0;entryY=0.5;entryDx=0;entryDy=0;" edge="1" parent="1" source="11" target="37">
                    <mxGeometry width="50" height="50" relative="1" as="geometry">
                        <mxPoint x="436" y="-333" as="sourcePoint"/>
                        <mxPoint x="486" y="-383" as="targetPoint"/>
                        <Array as="points">
                            <mxPoint x="216" y="-193"/>
                        </Array>
                    </mxGeometry>
                </mxCell>
                <mxCell id="58" value="" style="endArrow=classic;html=1;exitX=1;exitY=0.5;exitDx=0;exitDy=0;entryX=0;entryY=0.5;entryDx=0;entryDy=0;" edge="1" parent="1" source="13" target="36">
                    <mxGeometry width="50" height="50" relative="1" as="geometry">
                        <mxPoint x="436" y="-333" as="sourcePoint"/>
                        <mxPoint x="486" y="-383" as="targetPoint"/>
                        <Array as="points">
                            <mxPoint x="509" y="-385"/>
                        </Array>
                    </mxGeometry>
                </mxCell>
                <mxCell id="59" value="" style="endArrow=classic;html=1;exitX=1;exitY=0.5;exitDx=0;exitDy=0;entryX=0;entryY=0.5;entryDx=0;entryDy=0;" edge="1" parent="1" source="13" target="14">
                    <mxGeometry width="50" height="50" relative="1" as="geometry">
                        <mxPoint x="436" y="-333" as="sourcePoint"/>
                        <mxPoint x="486" y="-383" as="targetPoint"/>
                        <Array as="points">
                            <mxPoint x="507" y="-418"/>
                        </Array>
                    </mxGeometry>
                </mxCell>
                <mxCell id="60" value="" style="endArrow=classic;html=1;" edge="1" parent="1" source="14" target="22">
                    <mxGeometry width="50" height="50" relative="1" as="geometry">
                        <mxPoint x="472" y="-333" as="sourcePoint"/>
                        <mxPoint x="678" y="-398" as="targetPoint"/>
                    </mxGeometry>
                </mxCell>
                <mxCell id="62" value="" style="endArrow=classic;html=1;exitX=1;exitY=1;exitDx=0;exitDy=0;entryX=0;entryY=0.5;entryDx=0;entryDy=0;" edge="1" parent="1" source="47" target="12">
                    <mxGeometry width="50" height="50" relative="1" as="geometry">
                        <mxPoint x="472" y="-333" as="sourcePoint"/>
                        <mxPoint x="522" y="-383" as="targetPoint"/>
                        <Array as="points">
                            <mxPoint x="313" y="-540"/>
                        </Array>
                    </mxGeometry>
                </mxCell>
                <mxCell id="63" value="" style="endArrow=classic;html=1;entryX=0;entryY=0.5;entryDx=0;entryDy=0;exitX=1;exitY=0;exitDx=0;exitDy=0;" edge="1" parent="1" source="47" target="44">
                    <mxGeometry width="50" height="50" relative="1" as="geometry">
                        <mxPoint x="472" y="-333" as="sourcePoint"/>
                        <mxPoint x="522" y="-383" as="targetPoint"/>
                        <Array as="points">
                            <mxPoint x="317" y="-585"/>
                        </Array>
                    </mxGeometry>
                </mxCell>
                <mxCell id="64" value="" style="endArrow=classic;html=1;entryX=0;entryY=0.5;entryDx=0;entryDy=0;exitX=1;exitY=0;exitDx=0;exitDy=0;" edge="1" parent="1" source="46" target="5">
                    <mxGeometry width="50" height="50" relative="1" as="geometry">
                        <mxPoint x="472" y="-333" as="sourcePoint"/>
                        <mxPoint x="522" y="-383" as="targetPoint"/>
                        <Array as="points">
                            <mxPoint x="316" y="-668"/>
                        </Array>
                    </mxGeometry>
                </mxCell>
                <mxCell id="65" value="" style="endArrow=classic;html=1;exitX=1;exitY=1;exitDx=0;exitDy=0;entryX=0;entryY=0.5;entryDx=0;entryDy=0;" edge="1" parent="1" source="46" target="16">
                    <mxGeometry width="50" height="50" relative="1" as="geometry">
                        <mxPoint x="472" y="-333" as="sourcePoint"/>
                        <mxPoint x="522" y="-383" as="targetPoint"/>
                        <Array as="points">
                            <mxPoint x="316" y="-632"/>
                        </Array>
                    </mxGeometry>
                </mxCell>
                <mxCell id="66" value="Pin API" style="text;html=1;align=center;verticalAlign=middle;resizable=0;points=[];autosize=1;strokeColor=none;fillColor=none;rounded=1;fontStyle=1;fontSize=16;" vertex="1" parent="1">
                    <mxGeometry x="379" y="-773" width="73" height="31" as="geometry"/>
                </mxCell>
                <mxCell id="67" value="" style="endArrow=classic;html=1;fontSize=16;" edge="1" parent="1" source="12" target="13">
                    <mxGeometry width="50" height="50" relative="1" as="geometry">
                        <mxPoint x="436" y="-396" as="sourcePoint"/>
                        <mxPoint x="486" y="-446" as="targetPoint"/>
                    </mxGeometry>
                </mxCell>
            </root>
        </mxGraphModel>
    </diagram>
</mxfile>